<mxfile host="app.diagrams.net" modified="2020-05-30T08:32:52.619Z" agent="5.0 (Windows NT 10.0; WOW64) AppleWebKit/537.36 (KHTML, like Gecko) Chrome/83.0.4103.61 Safari/537.36" etag="pIZBR0NcijxGS5Z7MaPy" version="13.1.3" type="github" pages="2">
  <diagram id="TrtAdoSyQjhGtrQRBOCy" name="Page-1">
    <mxGraphModel dx="817" dy="456" grid="1" gridSize="10" guides="1" tooltips="1" connect="1" arrows="1" fold="1" page="1" pageScale="1" pageWidth="827" pageHeight="1169" math="0" shadow="0">
      <root>
        <mxCell id="0" />
        <mxCell id="1" parent="0" />
        <mxCell id="_-g267D8Uysh3emks9S_-1" value="&lt;font style=&quot;font-size: 14px&quot;&gt;用户&lt;/font&gt;" style="rounded=0;whiteSpace=wrap;html=1;" parent="1" vertex="1">
          <mxGeometry x="350" y="220" width="80" height="40" as="geometry" />
        </mxCell>
        <mxCell id="_-g267D8Uysh3emks9S_-2" value="编号" style="ellipse;whiteSpace=wrap;html=1;" parent="1" vertex="1">
          <mxGeometry x="360" y="320" width="70" height="60" as="geometry" />
        </mxCell>
        <mxCell id="_-g267D8Uysh3emks9S_-3" value="昵称" style="ellipse;whiteSpace=wrap;html=1;" parent="1" vertex="1">
          <mxGeometry x="240" y="110" width="70" height="60" as="geometry" />
        </mxCell>
        <mxCell id="_-g267D8Uysh3emks9S_-4" value="手机号" style="ellipse;whiteSpace=wrap;html=1;" parent="1" vertex="1">
          <mxGeometry x="400" y="70" width="70" height="60" as="geometry" />
        </mxCell>
        <mxCell id="_-g267D8Uysh3emks9S_-5" value="密码" style="ellipse;whiteSpace=wrap;html=1;" parent="1" vertex="1">
          <mxGeometry x="500" y="120" width="70" height="60" as="geometry" />
        </mxCell>
        <mxCell id="_-g267D8Uysh3emks9S_-6" value="头像" style="ellipse;whiteSpace=wrap;html=1;" parent="1" vertex="1">
          <mxGeometry x="315" y="80" width="70" height="60" as="geometry" />
        </mxCell>
        <mxCell id="_-g267D8Uysh3emks9S_-7" value="简介" style="ellipse;whiteSpace=wrap;html=1;" parent="1" vertex="1">
          <mxGeometry x="200" y="170" width="70" height="60" as="geometry" />
        </mxCell>
        <mxCell id="_-g267D8Uysh3emks9S_-8" value="状态" style="ellipse;whiteSpace=wrap;html=1;" parent="1" vertex="1">
          <mxGeometry x="190" y="250" width="70" height="60" as="geometry" />
        </mxCell>
        <mxCell id="_-g267D8Uysh3emks9S_-9" value="账号创建时间" style="ellipse;whiteSpace=wrap;html=1;" parent="1" vertex="1">
          <mxGeometry x="260" y="300" width="80" height="60" as="geometry" />
        </mxCell>
        <mxCell id="_-g267D8Uysh3emks9S_-10" value="" style="endArrow=none;html=1;exitX=1;exitY=0;exitDx=0;exitDy=0;" parent="1" source="_-g267D8Uysh3emks9S_-1" target="_-g267D8Uysh3emks9S_-5" edge="1">
          <mxGeometry width="50" height="50" relative="1" as="geometry">
            <mxPoint x="380" y="260" as="sourcePoint" />
            <mxPoint x="430" y="210" as="targetPoint" />
          </mxGeometry>
        </mxCell>
        <mxCell id="_-g267D8Uysh3emks9S_-11" value="" style="endArrow=none;html=1;exitX=0.75;exitY=0;exitDx=0;exitDy=0;" parent="1" source="_-g267D8Uysh3emks9S_-1" target="_-g267D8Uysh3emks9S_-4" edge="1">
          <mxGeometry width="50" height="50" relative="1" as="geometry">
            <mxPoint x="440" y="230" as="sourcePoint" />
            <mxPoint x="517.3726723918287" y="178.41821840544753" as="targetPoint" />
          </mxGeometry>
        </mxCell>
        <mxCell id="_-g267D8Uysh3emks9S_-12" value="" style="endArrow=none;html=1;entryX=0.5;entryY=1;entryDx=0;entryDy=0;" parent="1" source="_-g267D8Uysh3emks9S_-1" target="_-g267D8Uysh3emks9S_-6" edge="1">
          <mxGeometry width="50" height="50" relative="1" as="geometry">
            <mxPoint x="450" y="240" as="sourcePoint" />
            <mxPoint x="527.3726723918287" y="188.41821840544753" as="targetPoint" />
          </mxGeometry>
        </mxCell>
        <mxCell id="_-g267D8Uysh3emks9S_-13" value="" style="endArrow=none;html=1;exitX=0.153;exitY=0.005;exitDx=0;exitDy=0;exitPerimeter=0;" parent="1" source="_-g267D8Uysh3emks9S_-1" target="_-g267D8Uysh3emks9S_-3" edge="1">
          <mxGeometry width="50" height="50" relative="1" as="geometry">
            <mxPoint x="392" y="230" as="sourcePoint" />
            <mxPoint x="360" y="150" as="targetPoint" />
          </mxGeometry>
        </mxCell>
        <mxCell id="_-g267D8Uysh3emks9S_-14" value="" style="endArrow=none;html=1;exitX=0;exitY=0.25;exitDx=0;exitDy=0;" parent="1" source="_-g267D8Uysh3emks9S_-1" target="_-g267D8Uysh3emks9S_-7" edge="1">
          <mxGeometry width="50" height="50" relative="1" as="geometry">
            <mxPoint x="402" y="240" as="sourcePoint" />
            <mxPoint x="370" y="160" as="targetPoint" />
          </mxGeometry>
        </mxCell>
        <mxCell id="_-g267D8Uysh3emks9S_-15" value="" style="endArrow=none;html=1;" parent="1" target="_-g267D8Uysh3emks9S_-8" edge="1">
          <mxGeometry width="50" height="50" relative="1" as="geometry">
            <mxPoint x="350" y="240" as="sourcePoint" />
            <mxPoint x="278.4835858150102" y="218.73484847348095" as="targetPoint" />
          </mxGeometry>
        </mxCell>
        <mxCell id="_-g267D8Uysh3emks9S_-16" value="" style="endArrow=none;html=1;exitX=0;exitY=1;exitDx=0;exitDy=0;" parent="1" source="_-g267D8Uysh3emks9S_-1" target="_-g267D8Uysh3emks9S_-9" edge="1">
          <mxGeometry width="50" height="50" relative="1" as="geometry">
            <mxPoint x="370" y="250" as="sourcePoint" />
            <mxPoint x="288.4835858150102" y="228.73484847348095" as="targetPoint" />
          </mxGeometry>
        </mxCell>
        <mxCell id="_-g267D8Uysh3emks9S_-17" value="" style="endArrow=none;html=1;exitX=0;exitY=0.25;exitDx=0;exitDy=0;" parent="1" target="_-g267D8Uysh3emks9S_-2" edge="1">
          <mxGeometry width="50" height="50" relative="1" as="geometry">
            <mxPoint x="380" y="260" as="sourcePoint" />
            <mxPoint x="298.4835858150102" y="238.73484847348095" as="targetPoint" />
          </mxGeometry>
        </mxCell>
      </root>
    </mxGraphModel>
  </diagram>
  <diagram id="Jh6WaMnEFBIM6wjjtw5K" name="Page-2">
    <mxGraphModel dx="817" dy="456" grid="1" gridSize="10" guides="1" tooltips="1" connect="1" arrows="1" fold="1" page="1" pageScale="1" pageWidth="827" pageHeight="1169" math="0" shadow="0">
      <root>
        <mxCell id="1nUlodsOPZi1m8MpS1c4-0" />
        <mxCell id="1nUlodsOPZi1m8MpS1c4-1" parent="1nUlodsOPZi1m8MpS1c4-0" />
      </root>
    </mxGraphModel>
  </diagram>
</mxfile>
